<svg xmlns="http://www.w3.org/2000/svg" xmlns:xlink="http://www.w3.org/1999/xlink" width="178.123" height="140.193" viewBox="0 0 178.123 140.193"><defs><style>.a{fill:#a7a7a7;}.b{clip-path:url(#a);}</style><clipPath id="a"><rect class="a" width="178.123" height="140.193"/></clipPath></defs><g class="b" transform="translate(0 0)"><path class="a" d="M174.6,32.2a4.737,4.737,0,0,0-5.791,3.366l-14.4,54.411H56.787L36.168,4.23H4.736a4.736,4.736,0,1,0,0,9.472H28.7L49.323,99.448H161.7L177.964,37.99A4.737,4.737,0,0,0,174.6,32.2" transform="translate(0 3.783)"/><path class="a" d="M46.379,82.031,58.268,70.14H51.5a4.736,4.736,0,0,0,.339-1.737V60.528c0-6.009,13.378-14.606,25.343-18.277,14.778-4.533,32.034-14.411,32.034-27.33V4.736a4.736,4.736,0,0,0-9.472,0V14.92c0,5.888-11.131,13.916-25.341,18.275C63.323,36.6,42.369,46.684,42.369,60.528V68.4a4.7,4.7,0,0,0,.339,1.737h-8.22Z" transform="translate(30.846 -0.001)"/><path class="a" d="M81.57,63.193,93.459,51.3H86.691a4.7,4.7,0,0,0,.341-1.737V41.69c0-8.362-7.242-15.437-16.351-20.628a82.693,82.693,0,0,1-11.387,4.931C69.95,30.506,77.56,36.825,77.56,41.69v7.875A4.661,4.661,0,0,0,77.9,51.3H69.679Z" transform="translate(53.032 18.837)"/><path class="a" d="M40.284,59.3A13.931,13.931,0,1,0,54.216,73.227,13.947,13.947,0,0,0,40.284,59.3m0,18.391a4.459,4.459,0,1,1,4.459-4.459,4.464,4.464,0,0,1-4.459,4.459" transform="translate(23.57 53.034)"/><path class="a" d="M85.016,59.3A13.931,13.931,0,1,0,98.948,73.227,13.947,13.947,0,0,0,85.016,59.3m0,18.391a4.459,4.459,0,1,1,4.459-4.459,4.464,4.464,0,0,1-4.459,4.459" transform="translate(63.578 53.034)"/><path class="a" d="M55.31,35.547a82.722,82.722,0,0,1,11.211-4.96c-9.665-4.268-18.4-10.809-18.4-15.667V4.736a4.736,4.736,0,0,0-9.472,0V14.92c0,8.532,7.96,15.634,16.663,20.626" transform="translate(34.566 -0.001)"/></g></svg>