<svg xmlns="http://www.w3.org/2000/svg" xmlns:xlink="http://www.w3.org/1999/xlink" width="112.537" height="130.842" viewBox="0 0 112.537 130.842"><defs><style>.a{fill:#a7a7a7;}.b{clip-path:url(#a);}</style><clipPath id="a"><rect class="a" width="112.537" height="130.842"/></clipPath></defs><g class="b" transform="translate(0 0)"><path class="a" d="M33.481,25.479A7.981,7.981,0,0,0,28.745,39.9V103.32a4.736,4.736,0,1,0,9.472,0V39.9a7.981,7.981,0,0,0-4.736-14.42" transform="translate(22.788 22.788)"/><path class="a" d="M45.73,11.784A33.916,33.916,0,0,0,26.867,73.907a4.736,4.736,0,1,0,5.268-7.871A24.458,24.458,0,1,1,70.2,45.728,24.868,24.868,0,0,1,59.33,66.17a4.735,4.735,0,1,0,5.365,7.8A34.333,34.333,0,0,0,79.674,45.728,33.982,33.982,0,0,0,45.73,11.784" transform="translate(10.54 10.539)"/><path class="a" d="M56.269,0A56.219,56.219,0,0,0,24.959,102.945a4.736,4.736,0,0,0,5.276-7.867,46.8,46.8,0,1,1,52.062.006,4.736,4.736,0,1,0,5.272,7.869A56.22,56.22,0,0,0,56.269,0" transform="translate(0 -0.001)"/></g></svg>