<svg xmlns="http://www.w3.org/2000/svg" xmlns:xlink="http://www.w3.org/1999/xlink" width="170.091" height="170.091" viewBox="0 0 170.091 170.091"><defs><style>.a{fill:#a7a7a7;}.b{clip-path:url(#a);}</style><clipPath id="a"><rect class="a" width="170.091" height="170.091"/></clipPath></defs><g class="b" transform="translate(0 0)"><path class="a" d="M74.474,137.126a62.653,62.653,0,1,1,62.652-62.653,62.723,62.723,0,0,1-62.652,62.653m0-123.411a60.758,60.758,0,1,0,60.757,60.757A60.826,60.826,0,0,0,74.474,13.715" transform="translate(10.574 10.573)"/><path class="a" d="M53.745,22.025a6.013,6.013,0,1,1-6.013-6.013,6.013,6.013,0,0,1,6.013,6.013" transform="translate(37.313 14.321)"/><path class="a" d="M53.745,73.441a6.013,6.013,0,1,1-6.013-6.013,6.013,6.013,0,0,1,6.013,6.013" transform="translate(37.313 60.307)"/><path class="a" d="M73.441,53.745a6.013,6.013,0,1,1,6.013-6.013,6.013,6.013,0,0,1-6.013,6.013" transform="translate(60.308 37.313)"/><path class="a" d="M22.024,53.745a6.013,6.013,0,1,1,6.013-6.013,6.013,6.013,0,0,1-6.013,6.013" transform="translate(14.32 37.313)"/><path class="a" d="M40.086,22.463a6.012,6.012,0,1,1-8.214-2.2,6.014,6.014,0,0,1,8.214,2.2" transform="translate(25.817 17.401)"/><path class="a" d="M65.794,66.99a6.012,6.012,0,1,1-8.214-2.2,6.013,6.013,0,0,1,8.214,2.2" transform="translate(48.81 57.226)"/><path class="a" d="M73,40.086a6.012,6.012,0,1,1,2.2-8.214A6.013,6.013,0,0,1,73,40.086" transform="translate(57.226 25.816)"/><path class="a" d="M28.476,65.794a6.012,6.012,0,1,1,2.2-8.214,6.013,6.013,0,0,1-2.2,8.214" transform="translate(17.401 48.81)"/><path class="a" d="M28.476,29.672a6.012,6.012,0,1,1-8.214,2.2,6.012,6.012,0,0,1,8.214-2.2" transform="translate(17.401 25.817)"/><path class="a" d="M73,55.38a6.012,6.012,0,1,1-8.214,2.2A6.01,6.01,0,0,1,73,55.38" transform="translate(57.226 48.81)"/><path class="a" d="M65.794,28.476a6.012,6.012,0,1,1-2.2-8.214,6.014,6.014,0,0,1,2.2,8.214" transform="translate(48.81 17.401)"/><path class="a" d="M40.086,73a6.012,6.012,0,1,1-2.2-8.214A6.012,6.012,0,0,1,40.086,73" transform="translate(25.817 57.226)"/><path class="a" d="M47.13,69.163a4.739,4.739,0,0,1-4.736-4.736V27.791a4.736,4.736,0,1,1,9.472,0V57.037l16.985-7.811a4.737,4.737,0,0,1,3.959,8.606l-23.7,10.9a4.713,4.713,0,0,1-1.98.434" transform="translate(37.917 20.62)"/><path class="a" d="M165.356,71.015h-4.689a76.165,76.165,0,0,0-3.113-11.632l4.056-2.343a4.738,4.738,0,0,0,1.733-6.469l-9.292-16.1a4.735,4.735,0,0,0-6.469-1.733l-4.1,2.364a77.43,77.43,0,0,0-8.5-8.5l2.364-4.1a4.734,4.734,0,0,0-1.733-6.469l-16.1-9.3a4.735,4.735,0,0,0-6.469,1.733l-2.341,4.058A76.5,76.5,0,0,0,99.075,9.423V4.736A4.735,4.735,0,0,0,94.339,0H75.753a4.735,4.735,0,0,0-4.736,4.736V9.425a76.19,76.19,0,0,0-11.633,3.112L57.042,8.479a4.735,4.735,0,0,0-6.469-1.733l-16.1,9.3a4.734,4.734,0,0,0-1.733,6.469l2.364,4.1a77.431,77.431,0,0,0-8.5,8.5l-4.1-2.364a4.735,4.735,0,0,0-6.469,1.733L6.75,50.571A4.736,4.736,0,0,0,8.483,57.04l4.056,2.343A75.949,75.949,0,0,0,9.427,71.015H4.736A4.737,4.737,0,0,0,0,75.751V94.339a4.737,4.737,0,0,0,4.736,4.736H9.425a76.253,76.253,0,0,0,3.114,11.634l-4.056,2.343a4.736,4.736,0,0,0-1.733,6.469l9.292,16.1a4.735,4.735,0,0,0,6.469,1.733l4.1-2.364a77.43,77.43,0,0,0,8.5,8.5l-2.364,4.1a4.734,4.734,0,0,0,1.733,6.469l16.1,9.292a4.735,4.735,0,0,0,6.469-1.733l2.341-4.054a76.026,76.026,0,0,0,11.633,3.111v4.689a4.735,4.735,0,0,0,4.736,4.736H94.339a4.735,4.735,0,0,0,4.736-4.736v-4.687a76.273,76.273,0,0,0,11.635-3.112l2.341,4.054a4.736,4.736,0,0,0,6.469,1.733l16.1-9.292a4.734,4.734,0,0,0,1.733-6.469l-2.364-4.1a77.429,77.429,0,0,0,8.5-8.5l4.1,2.364a4.735,4.735,0,0,0,6.469-1.733l9.292-16.1a4.737,4.737,0,0,0-1.733-6.469l-4.056-2.341a76.556,76.556,0,0,0,3.114-11.635h4.687a4.737,4.737,0,0,0,4.736-4.736V75.751a4.737,4.737,0,0,0-4.736-4.736M152.3,90.052h0a67,67,0,0,1-6.466,24.231c-.682,1.413-1.43,2.789-2.205,4.145-.127.22-.252.441-.379.659a67.959,67.959,0,0,1-24.235,24.2c-.189.11-.381.22-.572.328a67,67,0,0,1-30.615,8.813c-.923.042-1.847.07-2.777.07s-1.857-.028-2.777-.07c-.824-.034-1.644-.091-2.463-.153a66.957,66.957,0,0,1-28.153-8.659c-.191-.108-.383-.218-.572-.328a67.944,67.944,0,0,1-24.235-24.2c-.127-.218-.252-.439-.379-.659A66.965,66.965,0,0,1,17.8,90.052v-.008c-.055-.758-.106-1.517-.136-2.281-.042-.9-.068-1.805-.068-2.718s.027-1.805.068-2.7c.028-.75.078-1.493.131-2.237v0a66.915,66.915,0,0,1,6.56-24.466v0l0,0C25,54.309,25.7,53.015,26.427,51.74q.207-.369.421-.733c.754-1.284,1.536-2.548,2.37-3.776A68.021,68.021,0,0,1,47.252,29.2h0c1.214-.828,2.468-1.6,3.738-2.349.235-.138.472-.273.709-.407,1.262-.722,2.542-1.413,3.855-2.054l0,0a66.945,66.945,0,0,1,24.711-6.611c.7-.051,1.4-.093,2.1-.121.887-.04,1.775-.068,2.673-.068s1.785.028,2.671.068c.7.028,1.406.07,2.1.121a66.937,66.937,0,0,1,28.569,8.665c.239.136.476.271.712.411,1.267.744,2.521,1.519,3.736,2.347h0a67.981,67.981,0,0,1,20.4,21.8q.213.367.422.735c.727,1.275,1.426,2.569,2.071,3.893l0,0v0A66.915,66.915,0,0,1,152.3,80.1v0c.053.744.1,1.487.131,2.237.042.9.068,1.8.068,2.7s-.027,1.817-.068,2.718c-.03.763-.081,1.523-.136,2.281Z" transform="translate(0 0)"/></g></svg>