<svg xmlns="http://www.w3.org/2000/svg" xmlns:xlink="http://www.w3.org/1999/xlink" width="176.808" height="144.397" viewBox="0 0 176.808 144.397"><defs><style>.a{fill:#a7a7a7;}.b{clip-path:url(#a);}</style><clipPath id="a"><rect class="a" width="176.808" height="144.397"/></clipPath></defs><g class="b" transform="translate(0 0)"><path class="a" d="M176.693,77.156c-.017-.085-.04-.167-.063-.25a4.869,4.869,0,0,0-.277-.767c-.025-.051-.042-.1-.066-.153a4.8,4.8,0,0,0-.525-.8c-.047-.061-.1-.114-.152-.172a4.693,4.693,0,0,0-.587-.561c-.038-.03-.064-.068-.1-.1-.019-.015-.04-.021-.057-.034a4.712,4.712,0,0,0-.849-.494c-.057-.027-.116-.044-.172-.066a4.832,4.832,0,0,0-.462-.174L134.974,62.535V16.77a4.648,4.648,0,0,0-.116-.979c-.017-.085-.04-.167-.063-.25a4.687,4.687,0,0,0-.277-.767c-.025-.051-.042-.1-.066-.155a4.861,4.861,0,0,0-.525-.8c-.047-.061-.1-.114-.152-.172a4.693,4.693,0,0,0-.587-.561c-.038-.03-.066-.068-.1-.1-.019-.015-.04-.021-.057-.034a4.761,4.761,0,0,0-.847-.494c-.059-.027-.121-.045-.18-.068-.152-.061-.3-.127-.457-.172L89.713.184a4.731,4.731,0,0,0-2.618,0L45.261,12.217a4.533,4.533,0,0,0-.457.172c-.059.025-.121.042-.18.068a4.761,4.761,0,0,0-.847.494c-.017.013-.038.019-.057.034-.036.028-.064.066-.1.1a4.835,4.835,0,0,0-.587.561c-.051.059-.1.112-.152.172a4.784,4.784,0,0,0-.525.8c-.025.051-.042.1-.066.155a4.685,4.685,0,0,0-.277.767c-.023.083-.045.165-.063.25a4.648,4.648,0,0,0-.116.979V62.535L3.427,73.583a4.536,4.536,0,0,0-.457.172c-.061.025-.121.042-.182.068a4.933,4.933,0,0,0-.845.494c-.017.013-.038.019-.057.034-.038.028-.064.066-.1.1a4.835,4.835,0,0,0-.587.561c-.053.059-.1.112-.152.172a4.8,4.8,0,0,0-.525.8c-.025.049-.042.1-.066.153a4.685,4.685,0,0,0-.277.767c-.023.083-.045.165-.063.25A4.541,4.541,0,0,0,0,78.135v49.493a4.734,4.734,0,0,0,3.427,4.552l41.834,12.033c.036.011.076.006.112.015a4.335,4.335,0,0,0,2.395,0c.036-.009.076,0,.112-.015L88.4,132.555l40.525,11.658c.036.011.076.006.112.015a4.335,4.335,0,0,0,2.395,0c.036-.009.076,0,.112-.015l41.834-12.033a4.734,4.734,0,0,0,3.427-4.552V78.135a4.541,4.541,0,0,0-.116-.979M46.29,71.112l24.7,7.1L46.57,85.239l-24.7-7.1Zm83.948,14.127-24.417-7.023,24.7-7.1,24.419,7.023Zm-4.736-22.7L93.14,71.844V32.368L122.588,23.9l2.914-.837ZM54.22,23.9l29.448,8.472V71.844L51.306,62.535V23.059ZM88.4,9.666l24.7,7.1-24.7,7.1-24.7-7.1ZM9.472,84.426l32.362,9.307v39.638L9.472,124.063Zm41.834,9.307,32.362-9.307v39.637l-32.362,9.309ZM93.14,84.426,125.5,93.733v39.638L93.14,124.063Zm41.834,48.946V93.733l32.362-9.307v39.637Z" transform="translate(0 -0.001)"/></g></svg>