<svg xmlns="http://www.w3.org/2000/svg" xmlns:xlink="http://www.w3.org/1999/xlink" width="216.23" height="138.329" viewBox="0 0 216.23 138.329"><defs><style>.a{fill:#a7a7a7;}.b{clip-path:url(#a);}</style><clipPath id="a"><rect class="a" width="216.23" height="138.329"/></clipPath></defs><g class="b" transform="translate(0 0)"><path class="a" d="M31.236,44.864A15.677,15.677,0,1,0,15.56,29.188,15.677,15.677,0,0,0,31.236,44.864" transform="translate(13.917 12.084)"/><path class="a" d="M59.3,37.7A15.677,15.677,0,1,0,43.628,22.025,15.677,15.677,0,0,0,59.3,37.7" transform="translate(39.021 5.677)"/><path class="a" d="M87.394,31.354A15.677,15.677,0,1,0,71.716,15.678,15.675,15.675,0,0,0,87.394,31.354" transform="translate(64.143 0)"/><path class="a" d="M6.683,102.069,99.865,67.657l12.179,21.877,66-26.654,0-2.552c.015-.595.034-1.188.034-1.788a81.51,81.51,0,0,0-5.77-30.922,40.516,40.516,0,0,0-52.443,0,71.347,71.347,0,0,0-3.279,10.071,40.487,40.487,0,0,0-49.931,1.953A72.26,72.26,0,0,0,63.063,51a40.507,40.507,0,0,0-49.584,2.207C9.845,61.972,6.735,84.652,6.735,96.157c0,.6.019,1.2.034,1.79L6.1,101.02Z" transform="translate(5.456 16.089)"/><path class="a" d="M216.23,45.1l-19.658-7.97,3.9,9.216L115.418,80.7,103.3,58.934l-100.2,37a4.736,4.736,0,1,0,3.283,8.885L98.971,70.63l12.24,21.985,92.951-37.539,4.1,9.686Z" transform="translate(0 33.212)"/></g></svg>