<svg xmlns="http://www.w3.org/2000/svg" xmlns:xlink="http://www.w3.org/1999/xlink" width="142.226" height="142.226" viewBox="0 0 142.226 142.226"><defs><style>.a{fill:#a7a7a7;}.b{clip-path:url(#a);}</style><clipPath id="a"><rect class="a" width="142.226" height="142.226"/></clipPath></defs><g class="b" transform="translate(0 0)"><path class="a" d="M71.113,0a71.112,71.112,0,1,0,71.11,71.112A71.112,71.112,0,0,0,71.113,0m0,129.077L14.594,85.5H35.078V24.476a58.885,58.885,0,0,1,72.071,0V85.5H127.63Z" transform="translate(0.001 0.001)"/><path class="a" d="M52.633,21.5c11.4.684,22.03,6.685,22.115,19.971H58.805c.172-4.37-2.573-6.513-6.172-7.371V45.755c1.97.515,4.2,1.029,6.344,1.629,8.828,2.485,17.743,6.6,17.743,17.658,0,14.316-11.573,19.632-24.087,20.145V92.9H48.6V85.187c-13.543-.428-25.031-6.43-25.116-21.517H39.433c.341,6.174,3.77,8.659,9.171,9.258V59.47c-1.542-.428-3.429-.943-5.4-1.457-8.743-2.487-17.915-6.43-17.915-17.66,0-13.2,12.173-18.516,23.316-18.944V13.694h4.029ZM48.6,33.754c-3.344.085-7.373,1.372-7.373,5.571,0,2.743,3,4.2,7.373,5.4Zm4.029,39.089c3.772-.258,8.144-1.8,8.144-5.914,0-3.344-3.258-4.973-8.144-6.344Z" transform="translate(21.008 12.248)"/></g></svg>