<svg xmlns="http://www.w3.org/2000/svg" xmlns:xlink="http://www.w3.org/1999/xlink" width="227.101" height="151.567" viewBox="0 0 227.101 151.567"><defs><style>.a{fill:#a7a7a7;}.b{clip-path:url(#a);}</style><clipPath id="a"><rect class="a" width="227.101" height="151.567"/></clipPath></defs><g class="b" transform="translate(0 0)"><path class="a" d="M70.268,92.982a43.25,43.25,0,0,0,30.579-73.834A43.249,43.249,0,1,0,39.685,80.312a42.961,42.961,0,0,0,30.583,12.67M41.024,20.487A41.355,41.355,0,0,1,99.508,78.973,41.355,41.355,0,0,1,41.024,20.487" transform="translate(24.162 5.793)"/><path class="a" d="M226.985,27c-.017-.083-.04-.165-.063-.25a4.6,4.6,0,0,0-.277-.765c-.025-.051-.042-.1-.066-.155a4.8,4.8,0,0,0-.525-.8c-.047-.061-.1-.114-.153-.172a4.756,4.756,0,0,0-.582-.557c-.04-.03-.068-.07-.106-.1-.019-.015-.042-.021-.059-.036a4.686,4.686,0,0,0-.841-.489c-.064-.03-.131-.049-.2-.074a4.028,4.028,0,0,0-.443-.169L142.864.186a4.7,4.7,0,0,0-2.62,0L119.7,6.095A55.518,55.518,0,0,0,47.959,85.907l-5.526,5.528-2.449-2.449L0,128.969a46.919,46.919,0,0,0,8.294,12.058,46.9,46.9,0,0,0,12.058,8.3l35.656-35.656v9.923a4.735,4.735,0,0,0,3.425,4.55l80.811,23.244c.038.011.076.006.114.015a4.335,4.335,0,0,0,2.395,0c.036-.009.076,0,.112-.015l80.809-23.244a4.734,4.734,0,0,0,3.427-4.55V27.981a4.54,4.54,0,0,0-.116-.979M141.555,9.665l63.676,18.315L148.8,44.212a55.126,55.126,0,0,0-15.11-27.946c-1.165-1.167-2.376-2.256-3.616-3.3Zm-79.69,13.3a46.051,46.051,0,1,1,0,65.126,45.9,45.9,0,0,1,0-65.126m3.615,97.061V102.891a55.6,55.6,0,0,0,68.208-8.106c1.1-1.1,2.135-2.247,3.131-3.419v49.177Zm152.149,0-71.337,20.518V75.388a55.478,55.478,0,0,0,3.66-19.865c0-.593-.023-1.184-.042-1.773l62.835-18.074,4.884-1.406Z" transform="translate(0 -0.001)"/></g></svg>