<svg xmlns="http://www.w3.org/2000/svg" xmlns:xlink="http://www.w3.org/1999/xlink" width="233.343" height="133.053" viewBox="0 0 233.343 133.053"><defs><style>.a{fill:#a7a7a7;}.b{clip-path:url(#a);}</style><clipPath id="a"><rect class="a" width="233.343" height="133.053"/></clipPath></defs><g class="b" transform="translate(0 0)"><path class="a" d="M12.537,37.688H80.978a4.736,4.736,0,1,0,0-9.472H12.537a4.736,4.736,0,0,0,0,9.472" transform="translate(6.977 25.237)"/><path class="a" d="M96.236,34.97V48.627h31.187L113.242,34.97Z" transform="translate(86.074 31.278)"/><path class="a" d="M232.085,75.46,208.929,50.4a4.73,4.73,0,0,0-3.478-1.521h-31.04V19.9A19.921,19.921,0,0,0,154.513,0H66.706a19.921,19.921,0,0,0-19.9,19.9V33.235H34.291a4.736,4.736,0,0,0,0,9.472h68.441a4.736,4.736,0,0,0,0-9.472H56.279V19.9A10.44,10.44,0,0,1,66.706,9.472h87.807A10.44,10.44,0,0,1,164.94,19.9v90.437H102.517a20.162,20.162,0,0,0-40.008,0H56.279V83.141h16.9a4.736,4.736,0,1,0,0-9.472H4.736a4.736,4.736,0,1,0,0,9.472H46.807v36.666H63.587a20.145,20.145,0,0,0,37.854,0h64.752a20.145,20.145,0,0,0,37.854,0h24.559a4.735,4.735,0,0,0,4.736-4.736v-36.4a4.736,4.736,0,0,0-1.258-3.215M82.514,123.581a10.709,10.709,0,1,1,10.709-10.709,10.721,10.721,0,0,1-10.709,10.709m102.606,0a10.709,10.709,0,1,1,10.709-10.709,10.721,10.721,0,0,1-10.709,10.709m38.75-13.246H205.124A20.123,20.123,0,0,0,174.412,95.8V58.349h28.969l20.49,22.178Z" transform="translate(0 0)"/></g></svg>